<?xml version="1.0" standalone="no"?>
<!DOCTYPE svg PUBLIC "-//W3C//DTD SVG 20010904//EN"
 "http://www.w3.org/TR/2001/REC-SVG-20010904/DTD/svg10.dtd">
<svg version="1.0" xmlns="http://www.w3.org/2000/svg"
 width="283.000000pt" height="283.000000pt" viewBox="0 0 283.000000 283.000000"
 preserveAspectRatio="xMidYMid meet">
<metadata>
Created by potrace 1.14, written by Peter Selinger 2001-2017
</metadata>
<g transform="translate(0.000000,283.000000) scale(0.100000,-0.100000)"
fill="#000000" stroke="none">
<path d="M0 1415 l0 -1415 1415 0 1415 0 0 1415 0 1415 -1415 0 -1415 0 0
-1415z m1899 1056 c20 -13 17 -1941 -4 -1981 -31 -61 -21 -60 -510 -60 -406
-1 -448 1 -475 17 -54 32 -60 59 -60 292 l0 211 203 -2 202 -3 3 -150 c3 -185
3 -185 124 -185 133 0 118 -118 118 930 0 813 2 910 16 924 13 13 45 16 192
16 97 0 183 -4 191 -9z"/>
</g>
</svg>
